<?xml version="1.0" encoding="UTF-8"?>
<svg version="1.1" xmlns="http://www.w3.org/2000/svg" width="200" height="200">
<path d="M0 0 C66 0 132 0 200 0 C200 66 200 132 200 200 C134 200 68 200 0 200 C0 134 0 68 0 0 Z " fill="#000000" transform="translate(0,0)"/>
<path d="M0 0 C5.94 0 11.88 0 18 0 C18 6.93 18 13.86 18 21 C33.84 21 49.68 21 66 21 C66 27.27 66 33.54 66 40 C50.49 40 34.98 40 19 40 C19 46.93 19 53.86 19 61 C12.73 61 6.46 61 0 61 C0 40.87 0 20.74 0 0 Z " fill="#F8F8F8" transform="translate(61,43)"/>
<path d="M0 0 C6.27 0 12.54 0 19 0 C19.2475 1.98 19.495 3.96 19.75 6 C20.86999877 13.15554769 22.39251049 18.90918489 27.875 23.875 C31.27413615 26.39355317 31.27413615 26.39355317 37 28 C37 34.27 37 40.54 37 47 C24.72748339 45.63638704 18.31273975 41.88363143 10 33 C2.42286396 22.86538198 0 12.49779616 0 0 Z " fill="#FAFAFA" transform="translate(61,110)"/>
<path d="M0 0 C6.16356805 1.6658292 11.48259656 4.87805286 17 8 C12.57728341 18.5760614 4.27143213 26.56631305 -6.32421875 30.96484375 C-10.58691207 32.49377672 -13.33130725 33 -18 33 C-18 26.73 -18 20.46 -18 14 C-16.494375 13.505 -14.98875 13.01 -13.4375 12.5 C-7.27963505 10.0683431 -2.97022773 5.94045547 0 0 Z " fill="#F9F9F9" transform="translate(122,124)"/>
</svg>
